<?xml version="1.0" standalone="no"?>
<!DOCTYPE svg PUBLIC "-//W3C//DTD SVG 20010904//EN"
 "http://www.w3.org/TR/2001/REC-SVG-20010904/DTD/svg10.dtd">
<svg version="1.0" xmlns="http://www.w3.org/2000/svg"
 width="500.000000pt" height="500.000000pt" viewBox="0 0 500.000000 500.000000"
 preserveAspectRatio="xMidYMid meet">
<metadata>
Created by potrace 1.14, written by Peter Selinger 2001-2017
</metadata>
<g transform="translate(0.000000,500.000000) scale(0.100000,-0.100000)"
fill="#000000" stroke="none">
<path d="M2618 4122 l-187 -188 225 -225 225 -225 -109 -110 c-61 -60 -177
-176 -259 -257 l-150 -148 1 380 c1 210 -1 381 -4 381 -3 0 -126 -121 -273
-268 l-268 -268 1 -385 0 -385 -69 -68 -69 -69 -1 559 c0 307 0 577 -1 599 l0
41 -270 0 c-185 0 -270 -3 -271 -10 -3 -27 -5 -2792 -2 -2798 4 -9 543 532
543 546 4 116 0 294 -7 279 -2 -7 -9 -13 -14 -13 -5 0 -95 86 -200 191 l-190
190 203 204 c111 113 204 203 206 201 2 -2 3 -173 3 -380 0 -207 2 -376 4
-376 3 0 31 27 63 60 33 33 62 60 66 60 4 0 7 -35 6 -77 -1 -43 -1 -108 -1
-145 l1 -66 273 273 272 273 0 148 -1 149 247 247 c135 137 248 248 250 248 2
0 4 -270 4 -600 l-1 -600 273 272 273 273 0 460 0 460 228 -228 227 -227 0
385 -1 386 -519 519 c-286 286 -524 520 -530 520 -5 -1 -94 -85 -197 -188z
m792 -901 l0 -266 -260 260 c-143 143 -260 262 -260 265 0 3 117 6 260 6 l260
0 0 -265z"/>
</g>
</svg>
