<svg viewBox="0 0 780 360" fill="currentColor" xmlns="http://www.w3.org/2000/svg">
  <path d="M113.351 265.497L174.484 125.091L186.353 143.901H106.857L124.995 123.523V168.086H87.1505V108.744H217.032V136.511L161.72 265.497H113.351Z"/>
  <path d="M182.3 265.296L238.066 118.798H274.567L301.587 218.417H282.328L383.399 118.798H419.9L364.581 265.296H323.826L357.077 176.769H364.018L288.567 250.856H268.861L248.469 176.769H256.978L223.28 265.296H182.3Z"/>
  <path d="M473.516 225.732C465.048 225.732 457.415 224.064 450.615 220.728C443.944 217.393 438.684 212.197 434.835 205.141C431.114 197.956 429.254 188.911 429.254 178.006V119.696H465.818V172.04C465.818 180.123 467.293 185.896 470.244 189.36C473.323 192.824 477.621 194.556 483.138 194.556C486.73 194.556 490.002 193.722 492.952 192.055C495.903 190.387 498.277 187.757 500.073 184.164C501.869 180.444 502.767 175.697 502.767 169.924V119.696H539.331V224H504.499V194.556L511.234 202.831C507.642 210.529 502.446 216.302 495.647 220.151C488.847 223.872 481.47 225.732 473.516 225.732Z"/>
  <path d="M405.167 241.957H538.725V247.702C538.725 258.971 529.59 268.106 518.322 268.106H394.037L405.167 241.957Z" fill="#34B0E4"/>
  <path d="M623.372 268.125C610.534 268.125 598.143 266.557 586.2 263.422C574.406 260.138 564.777 255.958 557.312 250.882L571.868 218.188C578.884 222.666 586.946 226.398 596.053 229.384C605.309 232.221 614.49 233.639 623.596 233.639C629.717 233.639 634.644 233.116 638.376 232.071C642.108 230.877 644.795 229.384 646.438 227.593C648.229 225.652 649.125 223.413 649.125 220.875C649.125 217.292 647.483 214.455 644.198 212.365C640.914 210.275 636.659 208.558 631.434 207.215C626.209 205.871 620.387 204.528 613.967 203.184C607.697 201.84 601.352 200.124 594.933 198.034C588.663 195.944 582.915 193.256 577.69 189.972C572.465 186.538 568.21 182.134 564.926 176.76C561.642 171.236 559.999 164.294 559.999 155.934C559.999 146.529 562.537 138.019 567.613 130.406C572.838 122.792 580.601 116.671 590.902 112.043C601.203 107.415 614.042 105.101 629.419 105.101C639.72 105.101 649.797 106.296 659.65 108.684C669.652 110.924 678.535 114.283 686.298 118.761L672.638 151.679C665.173 147.649 657.784 144.663 650.468 142.722C643.153 140.632 636.062 139.587 629.195 139.587C623.074 139.587 618.147 140.259 614.415 141.602C610.683 142.797 607.996 144.439 606.354 146.529C604.711 148.619 603.89 151.008 603.89 153.695C603.89 157.128 605.458 159.89 608.593 161.98C611.877 163.921 616.132 165.563 621.357 166.907C626.731 168.101 632.554 169.37 638.824 170.714C645.243 172.057 651.588 173.774 657.858 175.864C664.278 177.805 670.1 180.492 675.325 183.926C680.55 187.21 684.73 191.614 687.865 197.138C691.15 202.512 692.792 209.305 692.792 217.516C692.792 226.622 690.179 235.057 684.954 242.82C679.878 250.434 672.19 256.555 661.889 261.183C651.737 265.811 638.898 268.125 623.372 268.125Z"/>
</svg>