<svg viewBox="0 0 1254 415" fill="none" xmlns="http://www.w3.org/2000/svg" >
  <g clip-path="url(#clip0_357_704)">
    <path d="M260 350.9C230.1 366.6 202.3 385.8 169.7 395.1C138.5 404 107.1 407.2 75.4003 398.4C63.7003 395.2 52.7003 390.1 42.8003 382.8C47.0003 383.8 51.1003 384.9 55.4003 385.8C73.0003 389.5 88.9003 385.1 104 376.2C105.1 375.5 106.2 374.7 107.2 373.8C110.9 370.3 110.6 368 106.2 365.8C79.2003 352.4 68.7003 328.7 65.3003 300.6C65.1003 299 65.0003 297.3 64.9003 295.6C64.8003 294 64.6003 292.4 64.3003 289.7C67.2003 294.3 69.4003 298.2 71.9003 301.9C88.3003 325.4 111.4 338.7 138.7 345.8C171.9 354.4 205.4 356.9 239.5 353.1C246.2 352.3 253.1 351.7 260 350.9Z" fill="currentColor"/>
    <path d="M111.8 314.5C94.2001 299 76.3001 284.1 59.4001 268.3C39.9001 250.1 24.6001 228.7 13.4001 204.3C2.10009 179.6 -2.59991 153.8 1.40009 126.7C1.60009 125.2 2.00009 123.8 2.30009 122.8C4.10009 130.2 5.40009 138.1 7.90009 145.6C12.2001 158.3 21.3001 167.6 31.5001 175.8C31.8001 176 32.1001 176.2 32.3001 176.3C38.7001 180.3 41.3001 179.1 42.0001 171.7C42.9001 162.3 45.7001 153.5 50.5001 145.4C61.0001 127.7 77.1001 116.9 95.8001 109C94.9001 110.2 94.1001 111.5 93.2001 112.6C75.8001 135.1 69.1001 160.6 71.2001 188.7C74.5001 231.8 88.7001 271.3 109.6 308.7C110.4 310.1 111.2 311.6 111.9 313.1C112.1 313.4 111.9 313.8 111.8 314.5Z" fill="currentColor"/>
    <path d="M328.8 413.7C330.6 408.4 332.8 403.2 334.3 397.8C338.6 382 335.4 366.9 329 352.2C328.3 350.7 327.3 349.3 326.3 348.1C324 345.4 321.6 345 319.5 348.3C303.2 374.2 278.3 382.3 249.5 382.6C246.3 382.6 243.2 382.5 240 382.4C239.8 382.4 239.5 382.1 239 381.7C242.7 380 246.3 378.5 249.8 376.7C275.8 363.3 292.2 341.7 302.6 314.9C313 288.1 319.4 260.4 320.7 231.6C321.2 219.4 320.8 207.2 320.8 194.9C321.4 194.8 321.9 194.8 322.5 194.7C326.8 205.6 330.9 216.5 335.4 227.3C344.2 248.3 352.2 269.6 355.6 292.2C360.5 324.6 360 356.6 346.1 387C341.7 396.7 335.5 405.6 330.1 414.9C329.7 414.4 329.3 414 328.8 413.7Z" fill="currentColor"/>
    <path d="M213.2 1.40002C212 2.20002 210.7 3.00002 209.5 3.70002C192.7 13.8 183.4 29.2 178.8 47.9C178.3 49.8 178.4 51.9 178.4 53.8C178.5 58.5 180.4 60 184.7 58.3C210.4 48.4 233.6 54.8 255.5 69.2C259.6 71.9 263.5 75.1 267.1 79C263.7 78.3 260.4 77.6 257 77C226.6 72 199.6 80.8 174.4 97.2C142 118.3 115.8 145.5 93.6999 176.9C92.3999 178.8 90.9999 180.6 88.8999 182.1C91.8999 171 95.1999 159.9 97.9999 148.7C104.5 122.5 112.3 96.8 126.1 73.4C140.8 48.6 158.9 26.9 184.4 12.6C193.3 7.60003 203 4.10002 212.4 -0.0999756C212.6 0.500024 212.9 0.900024 213.2 1.40002Z" fill="currentColor"/>
    <path d="M412.6 162.7C409.2 160.3 406.5 158.3 403.7 156.4C388.5 146.2 371.7 144.1 354.1 147.1C346.4 148.4 345.3 151.8 350.3 157.7C366.3 176.6 368.9 198.6 364.5 222C363.2 228.6 361.1 235.1 359.2 242C356.7 232.3 355.1 223 352 214.1C345.2 194.8 332.9 179.4 317.1 166.5C285.2 140.4 248.6 123.7 209 113.1C206.2 112.3 203.4 111.6 200.6 109.9C208.8 109.1 216.9 108.4 225.1 107.6C238.3 106.4 251.5 104.8 264.8 104.2C305.1 102.2 343.5 109 378.5 130.2C391.8 138.1 407 152.6 412.6 162.7Z" fill="currentColor"/>
    <path d="M255.2 214.4C255.2 222.3 255.2 230.1 255.2 238.4C244.5 240.5 233.7 242.6 222.8 244.7C221 245 219.2 245.3 217.4 245.8C205.9 249.3 194.6 248 183.1 245.3C170.2 242.3 157.1 240.2 144 237.7C144 229.9 144 222.4 144 214.4C181 214.4 217.7 214.4 255.2 214.4Z" fill="currentColor"/>
    <path d="M201.2 293.6C183.1 279.2 165.2 265 147.3 250.8C147.5 250.4 147.6 250 147.8 249.6C155.6 250.9 163.3 252.1 171.1 253.4C179.8 254.9 188.4 257.5 197.1 257.6C206.7 257.8 216.4 255.9 226 254.6C234.5 253.4 243 251.6 252 251C235.2 265.1 218.3 279.3 201.2 293.6Z" fill="currentColor"/>
    <path d="M97.5 200.3C167.1 200.3 235.5 200.3 304.4 200.3C302.6 204.2 301 207.2 296 207C290 206.8 288.8 208.1 288.9 213.9C289 226.8 289.3 239.8 289.4 252.7C289.4 255 288.9 257.3 288.6 259.7C287.9 259.7 287.3 259.8 286.6 259.8C286.3 257.6 285.7 255.4 285.7 253.1C285.7 240.1 285.9 227.2 285.9 214.2C285.9 207.8 285 206.9 278.3 206.9C261 207 243.7 207.3 226.5 207.4C187.1 207.6 147.7 207.7 108.3 208.1C102.6 208.3 101.3 204 97.5 200.3Z" fill="currentColor"/>
    <path d="M392.9 192.9C385.7 192.9 379.5 186.6 379.6 179.5C379.7 172.2 385.9 166.2 393.1 166.3C400.2 166.4 406 172.3 406.1 179.4C406.2 186.8 400.2 192.9 392.9 192.9Z" fill="currentColor"/>
    <path d="M236.5 25.8C236.6 33.2 230.7 39.2 223.3 39.2C216 39.2 209.9 33.1 209.9 25.9C209.9 18.9 215.8 12.9 222.9 12.7C230.2 12.5 236.4 18.6 236.5 25.8Z" fill="currentColor"/>
    <path d="M29.0002 144.2C21.4002 144.2 15.8002 138.7 15.9002 131C15.9002 123.5 21.7002 117.8 29.2002 117.9C36.4002 118 42.1002 123.6 42.1002 130.9C42.2002 138.5 36.6002 144.2 29.0002 144.2Z" fill="currentColor"/>
    <path d="M68.9002 358.7C68.8002 366.1 63.0002 371.8 55.5002 371.6C48.3002 371.5 42.7002 365.8 42.7002 358.5C42.7002 351 48.5002 345.2 55.9002 345.3C63.3002 345.4 69.0002 351.2 68.9002 358.7Z" fill="currentColor"/>
    <path d="M307.6 409.6C300.5 409.6 294.9 404.2 294.7 397.2C294.5 390.1 300.5 384 307.5 383.9C314.6 383.8 320.4 389.9 320.3 397.1C320.2 404.2 314.7 409.6 307.6 409.6Z" fill="currentColor"/>
    <path d="M1029.2 66.3C1030.7 66.1 1031.7 65.8 1032.6 65.8C1059.9 66 1087.2 65.8 1114.4 66.6C1127.9 67 1141.1 70.3 1152.9 77.4C1165.8 85.2 1172.6 96.8 1174 111.6C1175.1 123.4 1175.1 135.2 1170.8 146.5C1167.1 156.2 1161.2 164.2 1151.7 169.9C1152.6 170.7 1153 171.3 1153.7 171.7C1168.6 180.4 1175.9 193.9 1176.9 210.6C1177.4 219.6 1177.3 229 1175.3 237.8C1171.6 254 1159.9 263.6 1144.9 269.6C1133.5 274.2 1121.6 276.5 1109.4 276.7C1090.6 277 1071.9 276.7 1053.1 276.4C1050.3 276.4 1047.5 275.5 1044.8 274.7C1032.7 271.3 1029.1 266.4 1029.1 254.1C1029.1 193.6 1029.1 133.2 1029.1 72.7C1029.2 70.7 1029.2 68.5 1029.2 66.3ZM1067.9 216.6C1067.9 225.9 1067.9 235.2 1067.9 244.5C1067.9 247.2 1068.2 249 1071.6 248.9C1085.2 248.5 1098.9 248.8 1112.4 247.7C1122.3 246.9 1131.3 242.9 1135.8 233.1C1146.6 209.5 1132.5 186.1 1106.8 185C1095.3 184.5 1083.9 184.9 1072.4 184.6C1068.9 184.5 1067.7 185.7 1067.8 189.2C1068 198.3 1067.9 207.4 1067.9 216.6ZM1067.9 125.1C1067.9 133.7 1068 142.4 1067.8 151C1067.7 154.7 1068.7 156.4 1072.8 156.3C1082.3 156 1091.8 156.7 1101.2 156C1107.7 155.5 1114.6 154.6 1120.5 152C1134 146 1136.1 133.4 1135.6 120.5C1135 104.5 1127.2 96.4 1111.2 95.2C1098.1 94.2 1085 94.5 1071.9 94.1C1068.9 94 1067.8 95.2 1067.8 98.2C1067.9 107.1 1067.9 116.1 1067.9 125.1Z" fill="currentColor"/>
    <path d="M563.1 166.6C576.7 167.2 589.6 168.2 602.5 168.4C620.5 168.7 638.5 168.6 656.4 168.4C660.1 168.4 661.4 169.3 661.3 173.1C660.9 187.4 661.4 201.7 660.6 215.9C659 246 644.6 265.4 615.8 274.4C585.5 283.9 554.8 284 524.8 272.7C499.3 263.1 484.5 244.1 483.4 217C482.1 186.7 482.2 156.2 483.4 125.8C484.4 97.7 502.9 76.3 530.1 68.2C560.9 59.1 591.6 60.5 622.1 69C633 72.1 643.4 77.1 650 87.1C657.5 98.5 654.7 109.9 649.3 121.2C648.7 122.4 648 123.5 647.3 124.7C647 125.1 646.7 125.5 646.2 126.1C635.8 102.3 614.4 96.3 591.9 93.3C581.1 91.8 569.9 91.9 559.1 93C536.2 95.4 522.8 109.1 522 131.9C521.1 158.5 521.1 185.1 522 211.6C522.7 232.9 535.4 246.7 557.2 249.7C568.5 251.3 580.5 251 591.9 249.3C611.1 246.4 620.7 234.5 621.9 215.2C622.2 210.4 621.9 205.6 622.1 200.7C622.2 197.6 621 196.7 618 196.7C608.7 196.8 599.4 196.8 590 196.7C574.1 196.7 566.5 190.2 564 174.5C563.3 171.6 563.3 168.6 563.1 166.6Z" fill="currentColor"/>
    <path d="M732.8 213.3C732.1 222.2 731.6 230.3 735.3 237.9C738.9 245.4 745.3 249.5 753.2 250.9C767 253.4 780.7 252.6 794 247.8C805.1 243.7 813.9 237 816.7 224.5C826.7 234.4 827.4 252.3 818.4 262.9C811.9 270.6 803.2 275 793.8 277.3C769.8 283.2 745.9 282.7 723 272.4C704.7 264.2 695.3 249.5 695 229.6C694.7 210.7 694.9 191.7 694.9 172.8C695 149.1 709.1 131.2 732.1 125.4C750.7 120.7 769.3 120.4 787.8 125.3C819.3 133.7 826.8 160.6 820.8 184.6C816.4 202.1 803.8 211.4 787.1 215.7C769.1 220.2 751.2 220 732.8 213.3ZM731.9 177.8C732.1 177.8 732.3 177.9 732.5 177.9C732.5 179.7 732.1 181.7 732.6 183.3C733.1 184.9 734.4 187.2 735.6 187.4C747.4 189.7 759.3 191 771.2 187.9C779.1 185.8 783.9 180.6 784.6 173.6C785.7 163.4 782.6 155.8 774.8 152.1C765.2 147.5 755.1 147.7 745.2 151.3C739.8 153.3 736.1 157.6 734.6 163.2C733.4 168 732.8 172.9 731.9 177.8Z" fill="currentColor"/>
    <path d="M988.5 280.2C979.9 278.3 971.6 277.1 963.8 274.5C953.8 271.2 951.2 266.7 951.2 256.1C951.2 228.8 951.2 201.6 951.2 174.3C951.2 159.2 944.1 150.5 928.9 150C918.1 149.6 907.2 151.8 896.3 152.8C892.5 153.2 893.2 156.1 893.2 158.5C893.2 182.1 893.2 205.7 893.2 229.3C893.2 244.1 893.2 258.9 893.2 273.7C893.2 275.5 893.2 277.3 893.2 279.3C883.2 278.6 873.8 277.9 865.1 273.5C858.8 270.3 855.5 265.6 855.5 258.1C855.7 213.7 855.6 169.4 855.6 125C855.6 124.3 855.7 123.7 855.7 122.8C861.9 124.3 867.8 126.1 873.9 127.3C884.5 129.4 894.7 126.6 905 124.5C924.5 120.4 943.7 120.4 962.3 128.1C978.8 134.9 988.3 147.6 988.6 165.3C989.3 202.5 989 239.7 989 277C989.1 277.6 988.9 278.2 988.5 280.2Z" fill="currentColor"/>
    <path d="M1253 280.4C1240.9 279.3 1229.3 278.9 1219.8 271.4C1217.3 269.4 1216.2 265.4 1214.8 262.2C1214.2 260.9 1214.6 259.2 1214.6 257.8C1214.6 195 1214.6 132.2 1214.6 69.4001C1214.6 62.5001 1214.7 62.2001 1221.4 63.4001C1228.7 64.8001 1236.1 66.2001 1243.1 68.7001C1249.7 71.0001 1253.1 75.8001 1253.1 83.5001C1252.9 146.8 1253 210.1 1253 273.4C1253 275.4 1253 277.3 1253 280.4Z" fill="currentColor"/>
    <path d="M808.2 326.5C810 329.6 812.3 332.3 813.1 335.3C815.1 343.3 811.1 349.8 802.9 351C796.9 351.9 790.7 351.8 784.6 351.4C782.8 351.3 779.7 348.8 779.6 347.3C779.2 332.7 779.4 318.2 779.4 302.3C788.2 302.9 796.7 302.7 804.8 304.4C813 306.1 815.6 317.1 810.2 324.3C809.5 325.2 808.7 326 808.2 326.5ZM787.5 337.9C787.5 345.9 787.5 345.9 793 346C801.7 346 805 343.9 804.9 338.3C804.9 332.6 801.4 330.1 793.2 330.1C787.5 330 787.5 330 787.5 337.9ZM794.6 307.5C787.6 308.6 787.6 308.6 787.6 314.7C787.6 316.8 787.5 319 787.7 321.1C787.8 322 788.2 323.1 788.8 323.6C791.5 325.5 801.7 323.8 802.9 320.7C803.9 318.2 804.7 314.2 803.4 312.5C801.4 310.1 797.6 309.1 794.6 307.5Z" fill="currentColor"/>
    <path d="M512.7 315C507.2 308.5 499.9 307.8 492.3 308.4C487.3 308.8 483.5 311.8 483.2 316.7C482.8 323.8 482.7 331 483.3 338C483.9 344.3 488.3 346.7 496.3 346.5C503.4 346.3 506.1 343.9 507.3 337.5C507.9 333.9 506.8 332.5 503.2 332.7C501.9 332.8 500.5 332.7 499.2 332.7C495.5 332.7 493.7 331 494 327.1C501 327.1 508 327.1 516 327.1C515.5 332.4 515.2 337.4 514.7 342.4C514.6 343.3 514.1 344.3 513.6 345.2C510 351.3 498.8 354.3 488 352.1C479.6 350.3 475.4 346.2 474.7 337.6C474.2 330.8 474.2 324 474.7 317.2C475.2 309.3 479.4 304.1 487.2 303.3C494.1 302.6 501.4 303.1 508.3 304.5C513.9 305.6 514.8 308.9 512.7 315Z" fill="currentColor"/>
    <path d="M1029.8 317.8C1029.8 311.8 1029.8 306.1 1029.8 300.4C1036.3 300 1037.9 301.2 1037.9 306.6C1037.9 321.5 1037.9 336.4 1037.9 351.4C1031.5 351.7 1025.6 352.4 1019.7 352.3C1011.2 352.1 1007.4 347.9 1007.3 339.5C1007.3 336.2 1007.5 332.8 1007.2 329.5C1006.4 320.3 1013.7 315.2 1022.8 316.3C1025 316.6 1027 317.2 1029.8 317.8ZM1029.6 335.7C1029.6 333.2 1029.7 330.7 1029.5 328.3C1029.2 324.4 1025.8 321.6 1021.7 321.7C1017.7 321.8 1015.6 324.1 1015.3 327.9C1015 331.5 1015.1 335.2 1015.2 338.8C1015.4 345.4 1017.3 346.9 1024 347.1C1030.4 347.3 1029.7 343.2 1029.6 339.2C1029.6 338 1029.6 336.9 1029.6 335.7Z" fill="currentColor"/>
    <path d="M1079.3 334.4C1079.3 349.8 1075.9 353 1060.5 352.4C1050.4 352 1046.5 348 1046.5 337.8C1046.5 335 1046.4 332.1 1046.5 329.3C1046.6 327.2 1046.8 324.9 1047.6 323C1049.8 317.3 1058.4 314.9 1069.5 316.7C1075.7 317.7 1079 321.4 1079.4 327.9C1079.4 330.1 1079.3 332.2 1079.3 334.4ZM1071.3 334.9C1071.3 332.8 1071.4 330.6 1071.2 328.5C1070.8 323.7 1068.6 321.8 1063.3 321.7C1057.8 321.5 1055 323.4 1054.6 328.3C1054.3 332.6 1054.1 336.9 1054.8 341.1C1055.1 343.1 1057.1 346.1 1058.9 346.5C1066.9 348.3 1072 346.8 1071.3 338C1071.3 336.9 1071.3 335.9 1071.3 334.9Z" fill="currentColor"/>
    <path d="M1136.2 337.6C1135.3 341.6 1136.2 344.4 1139.5 346C1144.2 348.3 1151.3 346.4 1156.2 341.7C1158.2 346.2 1156.9 350.3 1152.1 351C1146.4 351.9 1140.2 351.8 1134.6 350.6C1132 350.1 1128.9 346.1 1128.4 343.2C1127.4 337.4 1127.7 331.3 1128.1 325.4C1128.5 320.4 1132 317.4 1137 316.7C1140.4 316.2 1144 316.2 1147.4 316.5C1153.4 317.1 1156.9 321.1 1157 326.7C1157.1 332.5 1153.6 336.7 1147.4 337.4C1143.8 337.9 1140.2 337.6 1136.2 337.6ZM1141.4 332.1C1145.1 331.9 1148.7 331.4 1148.8 327.1C1148.9 323.3 1146 321.8 1142.4 321.7C1138.3 321.7 1136 324.1 1135.8 328.1C1135.5 332.7 1139.1 331.6 1141.4 332.1Z" fill="currentColor"/>
    <path d="M630.7 341.6C632.3 346.6 630.6 349.7 626.5 351.2C620.3 353.4 614 353.3 608 350.7C604 349 602 345.6 601.9 341.2C601.9 336.6 601.8 331.9 601.9 327.3C602.1 321.8 605.4 317.7 610.8 317C614.5 316.5 618.4 316.5 622.2 316.9C627.7 317.6 631.2 321.9 631.1 327.2C631.1 332.8 627.6 337 621.7 337.6C618 338 614.1 337.7 610.1 337.7C608.9 341.4 610.2 344.1 613 345.9C617.3 348.4 624.8 346.7 630.7 341.6ZM615.5 332.1C620.2 332.1 623 330.2 623 327.1C622.9 323.1 620.3 321.8 616.8 321.6C612.8 321.5 609.8 324.3 609.8 328.2C609.6 332.9 613.3 331.4 615.5 332.1Z" fill="currentColor"/>
    <path d="M696.2 351.3C689.7 351.7 683.9 352.2 678.1 352.3C674 352.4 670.1 351.2 667.8 347.4C664.5 342 666.9 335.5 673.2 333.3C676.5 332.1 680 331.7 683.2 330.4C685.1 329.6 686.4 327.6 688 326.1C686 324.7 684.2 322.3 682.1 322C676.9 321.1 672.2 322.5 669.1 327.4C666.5 322.6 667.3 318.7 672.3 317.8C677.8 316.8 683.7 316.9 689.4 317.7C693.5 318.2 695.9 322 696.1 326C696.5 334.4 696.2 342.8 696.2 351.3ZM688.2 334.6C684.1 335.9 680.5 336.8 677.3 338.3C676 338.9 674.9 341.1 674.8 342.6C674.8 343.9 676.1 345.7 677.3 346.4C683 349.6 688.5 346.3 688.4 339.9C688.5 338.4 688.4 336.9 688.2 334.6Z" fill="currentColor"/>
    <path d="M1247.4 351.3C1240.8 351.7 1234.9 352.4 1228.9 352.3C1222.4 352.2 1218.6 348.9 1218.1 343.5C1217.6 337.8 1220.2 334.5 1226.7 332.6C1229.7 331.7 1232.9 331.2 1235.7 329.9C1237.2 329.2 1239.1 327.1 1239 325.9C1238.8 324.5 1236.7 322.5 1235.2 322.2C1229.5 321.1 1224.2 321.9 1220.7 327.3C1218.1 323.1 1218.7 320 1222.9 318.1C1229.2 315.3 1236 315.1 1242.1 318.3C1244.5 319.5 1247 323 1247.2 325.6C1247.8 333.9 1247.4 342.4 1247.4 351.3ZM1239.9 334.5C1236.1 335.6 1232.7 336.1 1229.9 337.7C1228.1 338.7 1226.2 341.3 1226.2 343.1C1226.3 346.7 1229.7 347.7 1232.8 347.5C1235.5 347.3 1239.3 348.1 1239.8 343.8C1240.2 340.9 1239.9 337.9 1239.9 334.5Z" fill="currentColor"/>
    <path d="M533.1 337.6C532.3 341.3 532.6 344.1 536.1 345.9C540.8 348.3 548.1 346.5 552.9 341.8C555.1 345.6 554.1 349.2 549.6 350.9C543.1 353.4 536.3 353.6 530.3 350.2C527.8 348.8 525.4 345.3 525 342.5C524.2 337 524.1 331.1 525.1 325.7C525.7 322.7 528.7 318.5 531.4 317.8C536.5 316.5 542.2 316.7 547.5 317.6C551.9 318.3 554.3 323.5 553.8 328.2C553.3 333.1 550 336.6 544.8 337.5C542.8 337.8 540.8 337.8 538.8 337.8C537 337.8 535.2 337.7 533.1 337.6ZM538.1 332C542.6 332 545.8 330.1 545.6 327.1C545.4 323.3 542.9 321.7 539.3 321.6C535.2 321.5 532.8 323.9 532.6 327.9C532.3 332.5 535.7 331.6 538.1 332Z" fill="currentColor"/>
    <path d="M850.5 351.3C844.3 351.7 838.7 352.4 833.1 352.4C825.9 352.4 822 349.2 821.2 343.5C820.5 338.1 823.4 334.6 830.4 332.6C833.3 331.8 836.3 331.2 838.9 329.9C840.4 329.2 842.4 327.1 842.2 325.9C842 324.4 839.9 322.7 838.3 322.1C833.2 320.4 827.9 322.5 823.4 327.3C821.4 321.5 822.8 318 828.6 317.1C833.1 316.4 837.9 316.4 842.4 317.1C847.3 317.8 850.3 321.4 850.4 326.6C850.6 334.6 850.5 342.8 850.5 351.3ZM843 334.5C839.2 335.6 836.3 336.4 833.3 337.4C830.5 338.3 828.6 340.1 829.4 343.3C830.4 347.2 833.8 347.6 836.9 347.3C839.4 347.1 843 347.5 843 343.2C843 340.5 843 337.7 843 334.5Z" fill="currentColor"/>
    <path d="M911.3 317.1C917.9 316.8 919.1 317.9 919.2 323.4C919.2 332.7 919.2 342 919.2 351.2C912.9 351.6 906.9 352.3 900.9 352.3C892.1 352.2 888.5 348.3 888.5 339.6C888.5 332.5 888.5 325.3 888.6 318.2C888.6 317.9 888.8 317.6 888.9 317.3C895.1 316.5 896.3 317.5 896.4 323.6C896.4 328.8 896 333.9 896.6 339C896.9 341.5 898.2 345.2 900 345.9C903 347 906.8 346.3 910.1 345.8C910.7 345.7 911.3 343 911.4 341.5C911.4 333.3 911.3 325.2 911.3 317.1Z" fill="currentColor"/>
    <path d="M975.3 351.9C968.3 351.3 967.7 350.7 967.7 344.8C967.7 335.7 967.7 326.6 967.7 316.5C974.7 316.5 981.2 316.2 987.8 316.6C994.6 317 997.7 319.8 998.2 326.4C998.7 334.8 998.3 343.2 998.3 351.6C991.5 351.9 990.5 351 990.5 344.6C990.5 339.5 990.8 334.3 990.4 329.2C990.2 326.9 988.8 323.3 987.1 322.8C984 321.8 980.3 322.4 977 322.9C976.4 323 975.9 325.5 975.8 326.8C975.7 333.3 975.7 339.7 975.7 346.2C975.5 348 975.4 349.8 975.3 351.9Z" fill="currentColor"/>
    <path d="M730.4 326.7C726.1 321.9 721 321 715.6 322.3C713.9 322.7 712.7 324.9 711.2 326.3C712.6 327.6 713.9 329.6 715.6 330.1C719.4 331.2 723.4 331.4 727.3 332.4C732.1 333.6 733.9 337.4 733.9 341.8C734 346.1 731.9 350.3 727.6 350.9C721.3 351.8 714.8 351.8 708.5 351C703.9 350.4 703.2 346.7 705.7 341.2C709.3 346.8 714.8 347.8 720.4 346.6C722.4 346.2 723.9 343.5 725.7 341.8C724 340.4 722.5 338.3 720.5 337.6C717.4 336.5 714 336.4 710.7 335.8C705.9 335 703.3 332.2 703.1 327.3C702.9 322.7 705.8 317.8 710.3 317.2C715.6 316.5 721.2 316.4 726.5 317.3C731.7 318.1 732.7 321.3 730.4 326.7Z" fill="currentColor"/>
    <path d="M570.5 351.9C562.9 351.3 562.6 351.1 562.6 344.5C562.6 335.4 562.6 326.3 562.6 316.4C569.7 316.4 576.3 316 582.8 316.5C589.8 317 592.8 320.7 592.9 327.6C593 335.5 592.9 343.5 592.9 351.4C586 351.7 584.9 350.7 584.9 344.7C584.9 339 585.2 333.4 584.7 327.8C584.5 325.8 582.5 322.8 580.8 322.4C577.8 321.7 574.3 322.5 571.1 323.1C570.6 323.2 570.4 325.8 570.4 327.2C570.5 335.4 570.5 343.5 570.5 351.9Z" fill="currentColor"/>
    <path d="M1119 351.9C1111.5 351.5 1111.2 351.2 1111.2 344.4C1111.2 339.3 1111.6 334.1 1111 329C1110.8 326.7 1109.1 323.2 1107.4 322.7C1104.3 321.8 1100.6 322.5 1097.3 323C1096.7 323.1 1096.2 325.9 1096.2 327.4C1096.1 335.5 1096.1 343.6 1096.1 351.7C1089.2 351.7 1088.3 350.8 1088.3 344.8C1088.3 335.7 1088.3 326.6 1088.3 316.6C1095.3 316.6 1102 316.3 1108.7 316.7C1115.7 317.1 1119 321.1 1119 328.2C1119 336 1119 344 1119 351.9Z" fill="currentColor"/>
    <path d="M1166 341C1169.6 346.8 1174.8 347.2 1180.3 346.7C1183.3 346.4 1186.4 345.1 1185.8 341.7C1185.5 340 1182.8 338.2 1180.8 337.5C1177.7 336.4 1174.3 336.3 1171 335.7C1166.6 334.9 1163.8 332.7 1163.7 327.8C1163.5 322.2 1165.6 318 1170.6 317.2C1175.9 316.4 1181.5 316.4 1186.8 317.2C1191.7 317.9 1192.7 320.9 1190.7 326.4C1186.7 322.1 1181.7 320.9 1176.3 322.1C1174.5 322.5 1173 324.8 1171.4 326.2C1173 327.6 1174.4 329.6 1176.2 330.2C1179.8 331.3 1183.7 331.5 1187.4 332.4C1192.3 333.5 1193.7 337.3 1193.8 341.8C1193.9 346.3 1192 350.3 1187.7 350.9C1181.4 351.8 1174.9 351.8 1168.6 350.9C1163.9 350.2 1163.2 346.6 1166 341Z" fill="currentColor"/>
    <path d="M867.9 351.8C863.5 352.1 859.9 351.7 859.8 347C859.5 337.1 859.7 327.2 859.7 317.7C864.9 317.2 869.6 316.2 874.3 316.4C877.2 316.5 880.6 317.5 882.7 319.4C884 320.5 883.2 323.9 883.4 326.3C882.8 326.5 882.2 326.8 881.6 327C880.7 325.9 880.1 324 879 323.7C875.9 323 872.6 322.5 869.5 322.9C868.7 323 868 326.8 868 328.9C867.8 336.4 867.9 344 867.9 351.8Z" fill="currentColor"/>
    <path d="M949.3 302.6C956.9 303.1 957.3 303.5 957.3 310.2C957.3 324.1 957.3 338 957.3 351.8C950.3 352.2 949.3 351.2 949.3 345C949.2 331 949.3 317 949.3 302.6Z" fill="currentColor"/>
    <path d="M647.6 351.8C640.5 351.5 639.8 350.8 639.8 344.6C639.8 335.5 639.8 326.4 639.8 317.7C645 317.2 649.8 316.5 654.5 316.2C662.5 315.7 665.5 319.7 662.7 325.2C659 324.1 655.6 322.7 652.1 322.2C649 321.8 647.4 323.6 647.6 327.1C647.8 333.7 647.7 340.4 647.6 347C647.6 348.5 647.6 350.2 647.6 351.8Z" fill="currentColor"/>
    <path d="M749.2 351.7C742.1 351.6 741.3 351 741.3 345.2C741.3 335.8 741.3 326.4 741.3 317C748.2 316.9 749.2 317.8 749.2 323.5C749.2 332.9 749.2 342.3 749.2 351.7Z" fill="currentColor"/>
    <path d="M1201.8 317C1208.6 317.2 1209.7 318.2 1209.7 323.9C1209.7 333.1 1209.7 342.4 1209.7 351.5C1202.8 352 1201.8 351.1 1201.8 345C1201.8 335.8 1201.8 326.5 1201.8 317Z" fill="currentColor"/>
    <path d="M748.5 310C741.5 310.7 741.2 310.4 742 304.2C748.7 302.8 749.5 303.5 748.5 310Z" fill="currentColor"/>
    <path d="M1202 303.7C1205.5 304 1209.1 302 1209.3 307.1C1209.4 310.1 1207.7 310.6 1205.2 310.4C1200.5 310 1202.5 306.7 1202 303.7Z" fill="currentColor"/>
  </g>
  <defs>
    <clipPath id="clip0_357_704">
      <rect width="1253.1" height="414.8" fill="currentColor"/>
    </clipPath>
  </defs>
</svg>