<svg viewBox="0 0 811 817" fill="currentColor" xmlns="http://www.w3.org/2000/svg" >
  <g clip-path="url(#clip0_202_10)">
    <g opacity="0.7">
      <path d="M809.9 347.3C808.3 329.9 803.6 313.3 797.6 297C796.9 295 796.9 292.4 797.4 290.3C803.8 261.2 800.8 233 789.5 205.7C786 197.3 781.6 189.2 776.8 181.5C768.1 167.5 759.5 153.6 754.7 136.7C748.5 142.5 742.9 147.7 737.9 152.3C733.5 143 729.7 133.6 724.6 124.9C719.1 115.4 712.4 106.7 706.3 97.6C704.8 95.4 703.7 93 702 90C701.2 94.4 700.7 97.9 699.7 101.2C699.1 103.3 697.5 105 696.4 106.9C694.8 105.6 692.8 104.5 691.6 102.9C687 96.4 682.8 89.6 678.3 83C675.3 78.7 671.4 75.6 665.5 74.1V92.9C648.6 78.4 631.9 64.1 614.7 49.3V72C612.9 71.2 611.8 70.8 610.9 70.2C591.2 56.1 571 42.5 551.9 27.5C542.7 20.2 535.5 10.3 527.3 1.60001C527.2 1.70001 526.8 2.10001 526.5 2.70001C526.4 2.80001 526.4 2.90001 526.3 3.00001C518.1 18.5 515.6 34.7 520.4 51.8C525.2 69.2 535.8 83.5 546.9 97.2C570.3 126.2 594.2 154.8 618.3 183.2C635.7 203.7 652.2 224.7 661.8 250.2C672.1 277.7 675.1 305.4 662.8 333.2C651 359.9 635.3 384 613.6 403.4C592.5 422.4 570 439.9 547.9 457.8C537.5 466.2 537.4 475 548.6 482.1C554.4 485.8 560.7 488.7 567.8 492.4C562.5 496.6 557.2 500.8 551.9 505.1C546.6 509.3 541.3 513.5 536 517.7C531.6 521.2 527.1 524.8 522.6 528.3C516.4 533.2 510.2 538.2 503.9 543.2C504.2 543.3 504.4 543.5 504.6 543.6C505 543.9 505.5 544.1 505.9 544.4C508.6 546.1 510.7 547.4 512.4 548.4C512.5 548.4 512.5 548.5 512.6 548.5C523.5 540.1 534 531.9 544.7 524.1C554 517.3 563.8 511.3 573 504.5C582.8 497.3 582.5 490.7 572.7 483.6C568.7 480.7 564.2 478.3 560.3 475.3C555 471.2 554.9 467.2 560.1 463C564.7 459.2 570 456.2 574.7 452.6C601 432 624.4 408.3 644.9 382C657.5 365.8 668.4 348.5 676.2 329.4C685 307.9 686.2 286.2 678.8 264.1C672.6 245.3 663.1 228.2 652.1 211.8C630.4 179.5 604.3 150.8 578.4 121.9C564.6 106.5 550.9 91 541.7 72.3C537.6 64 534.7 55.1 531.3 46.5C538.3 54.4 544.1 62.7 550.6 70.4C573.2 97.1 601.3 117.9 627.2 141.1C651.6 162.9 676.1 184.8 699.5 207.7C719.2 226.9 727.6 251.2 724.5 278.6C722.5 296.3 717.4 313.7 718.8 331.9C719.3 338.8 718.3 345.9 718.3 352.8C718.4 364.9 714.6 375.5 706.2 384.1C694.4 396.2 682 407.8 670 419.8C667.5 422.3 665.4 425.4 664.1 428.6C661.5 435.1 659.3 441.7 657.5 448.5C653.8 463 645.3 473.8 633.4 482.3C627.6 486.5 621.9 490.9 615.8 494.5C612.4 496.6 612.2 498.7 612.5 502.3C613.2 510 617.5 515.9 621.4 522.1C630.9 537 640.1 552 644.1 569.5C646.6 580.2 646.2 590.4 641.2 600.1C632.9 616.4 618.6 630.6 597.3 626.8C594.4 626.3 591.5 625.4 588.5 625.1C581.7 624.4 577.7 620.3 575.5 614.3C572.9 607.1 570.6 599.8 568.4 592.5C564.1 578.5 567.4 566.2 577.6 555.8C583.6 549.6 589.9 543.6 596.1 537.6C601.7 532.3 602.5 525.7 597.2 519.5C598.9 528.5 592.1 532 587.1 536.7C584.3 539.4 581.2 541.7 578.9 544.8C572.8 553.1 566 561.1 561.7 570.2C553.9 586.7 559.4 602.5 568.8 616.4C574.1 624.2 573.3 629.8 569.4 637.4C559.6 656.4 545.7 667.4 523.2 664.8C511.6 663.5 501.3 660.9 498.9 646.9C498.9 646.9 498.9 646.9 498.8 646.9C498.4 647 498 647.2 497.6 647.3C496.2 647.7 494.9 648.2 493.5 648.6C492.4 649 491.2 649.4 490.1 649.7C489.7 649.8 489.3 650 488.8 650.1C487.9 650.4 487.1 650.7 486.2 651C489 660 494.6 666.1 502.7 668.9C510.1 671.4 517.9 672.5 525.6 673.7C535 675.1 544 673.5 551.6 667.6C557.1 663.3 562.6 658.8 566.9 653.4C571.9 647.1 575.6 639.8 580.1 632.6C596.4 635.9 613 636.4 628 626.3C642.6 616.5 650.9 602.2 654.6 585.5C681.8 587.4 706.1 580.5 728.1 565.4C738 558.6 745.3 549.7 747.5 537.5C750.2 522.9 747 509 741.3 495.7C740 492.7 740.5 491.1 742.6 488.8C752.7 478 763.1 467.4 772.6 456.1C787.7 438 800.9 418.6 805.6 394.8C807.2 387 808.5 379.1 809.9 371.3V350.3C810.4 349.2 810 348.3 809.9 347.3ZM795.2 363.9C787.1 356.5 779.1 349.2 771.1 341.8C770.7 342.1 770.3 342.3 770 342.6C773.8 349.5 777.5 356.4 781.6 363.2C786.5 371.3 791.7 379.3 793 389C793.1 389.8 793.4 390.7 793.3 391.5C792.4 394.9 791.4 398.3 790.4 401.7C787.7 400.4 784.9 399.2 782.3 397.7C779.1 395.9 776 393.8 772.9 391.9C772.6 392.2 772.3 392.5 772 392.9C772.5 394.2 773.2 395.4 773.5 396.8C775.6 405.5 777.7 414.1 779.6 422.9C780 424.8 779.8 427.1 779.1 428.8C777.9 431.6 776 434 774.4 436.5C772.3 434.8 769.9 433.4 768.3 431.3C764 425.7 760 419.9 755.9 414.2C755.5 414.5 755.1 414.8 754.6 415C756.5 423 759 431 760 439.1C760.7 444.5 759.4 450.2 758.4 455.7C758.1 457.3 755.6 459.7 754.1 459.7C752.3 459.7 750.1 457.9 748.7 456.3C747.1 454.5 746.3 452.1 744 450.1C743.3 456.7 742.3 463.4 741.9 470C741.7 474.5 740.3 478.1 736.9 480.9C729.9 486.8 728.3 493.5 732.6 502.1C735.4 507.7 736.9 514 738.4 520.1C742.5 536.4 734.1 555.6 718.2 564.1C698.8 574.6 677.4 576.1 655.4 576.5C653 554.6 638.6 539.4 627.7 522.2C624.2 516.7 621.7 510.4 619.1 504.4C617.5 500.7 618.8 498.3 622.5 496C644.4 482.4 661.2 464.2 670.7 439.9C671.1 439 671.6 438 671.6 437.1C671.7 427.9 677.5 422.5 683.9 416.8C698.9 403.7 711 388 721.8 371.3C723.4 368.8 724.5 365.5 724.7 362.5C725.7 346.6 726 330.6 727 314.6C727.4 307.9 728.3 301.1 729.9 294.5C736.9 265.9 729.8 240.1 714.5 216.1C701.3 195.4 683.5 178.9 664.7 163.4C637.6 141.1 611 118.2 583.7 96.1C563.7 79.8 548 59.9 533.3 39.2C530.4 35.2 531.1 28.6 531 22.8C560 49.4 591.1 72.4 626.4 91.7C625.4 84.5 624.6 78.5 623.8 72.6C624.2 72.3 624.5 72 624.9 71.7C633.9 79 643.2 85.9 651.7 93.7C660.1 101.4 667.7 110.1 676.3 119.1C677 112.3 677.6 106.1 678.4 99.2C687.4 113.5 696 127.3 705 141.7C707.9 136.6 710.1 132.8 712.3 128.9H714.2C716.4 132.9 719.1 136.7 720.8 140.8C724.2 149.1 727.2 157.6 730.3 166C733.6 175 734.8 175.3 741 168C743.8 164.7 746.6 161.4 749.4 158.1C749.8 157.6 750.4 157.3 751.2 156.8C755.7 166 760.4 175 764.5 184.1C772.4 201.8 780.8 219.4 787.5 237.6C793.9 255.2 792.1 273.3 787.1 291.2C786.3 294 786.6 297.4 787.4 300.2C789.1 305.9 791.5 311.4 793.5 317.1C794.1 318.7 794.1 320.4 794.7 323.5C788 320.3 782.5 317.6 777.1 315C776.7 315.2 776.4 315.4 776 315.6C784.9 330.4 792.8 345.7 796.9 362.5C796.3 363 795.8 363.5 795.2 363.9Z"/>
      <path d="M352.3 259.5C362.1 256 370.2 250.6 377.5 244.1C382 240.2 382.2 234.1 381.4 228.7C379.9 218.5 377.5 208.5 375.8 198.3C373.8 186.6 373 174.6 376.4 163.1C378.4 156.2 381.6 149.1 386.2 143.7C396 132.2 397.5 119.3 395.7 105.3C395.5 103.5 395.2 101.7 394.9 98.9C396.6 100.2 397.7 100.8 398.4 101.7C402.5 106.2 406.7 110.8 410.7 115.5C418 123.9 421.5 133.7 421.1 144.9C420.7 154.7 420.9 164.6 420 174.3C418.1 196.2 425 215.6 436.3 233.8C439.5 239 443.1 244 446.6 249.1C447.6 248.7 448.1 248.7 448.4 248.4C459.2 238.7 463.2 218.7 457 205.9C454.9 201.6 452.6 197.3 450.6 192.9C446.5 184.1 444.5 175 447.1 165.3C447.3 164.7 447.6 164.2 448.2 162.7C450.9 181.8 462.9 194.4 475.1 206.1C485.7 216.3 488.2 227.3 484.3 240.8C481.3 251.2 478.6 261.7 475.9 272.1C475.3 274.5 474.6 276.9 474.2 279.4C471.7 294 481.7 302.4 495.8 297.6C500.8 295.9 503.8 292.7 504.1 287.5C504.5 278.5 504.5 269.6 504.6 260.6C504.8 250.1 504.2 239.6 505.3 229.3C506.3 219.7 511.5 211.7 519.5 204C518.9 210.1 518.6 215 517.8 219.8C516.1 229.9 518.7 239.4 522.5 248.5C531.2 269.5 535.1 291.2 531.3 313.9C531.2 314.5 531.4 315.2 531.4 315.8C538.3 316.6 544.2 313.4 546 306.5C548 298.8 548.6 290.8 550.1 283C551.1 277.8 552.3 272.6 554.1 267.6C555.1 264.7 557.5 262.4 560 260.1C557.6 281.5 564.7 301.2 568.9 321.2C572.7 339.5 568.4 355.2 556.2 368.9C549.7 376.2 542.4 382.9 536 390.3C526.5 401.1 521.3 414.4 516.6 427.8C511.2 443.2 502.9 456.1 487.3 462.5C479.4 465.7 470.9 467.8 462.6 470C458.1 471.2 453.4 471.6 448.8 472.3C426.4 475.9 419.5 479.4 402.4 496.1C386.3 476.8 363.3 474.6 340.8 470.9C333.1 469.6 325.4 468.1 318 465.8C304.8 461.7 296.5 452.4 292.7 439.1C289.9 429.3 286.2 419.8 279.3 412C275.2 407.3 270.7 402.4 265.3 399.4C254.4 393.2 250.2 383.5 248.5 372.1C247.8 367.7 247.3 363.1 247.6 358.7C248 352.6 245.7 348 241.5 344.1C236.7 339.7 232.1 335.2 227.1 331C221.4 326.2 216.6 320.7 214.3 313.5C211.1 303.8 208.4 293.9 206.3 284C212.8 291.7 218.9 299.7 225.9 306.9C235.1 316.3 246.6 319.8 259.7 317.5C265.1 316.6 266.2 315 265 309.6C262.5 298 256.1 288.2 249.5 278.5C242 267.4 234.7 256.2 232 242.9C231 237.7 231.2 232.3 230.9 227C231.4 226.9 231.9 226.9 232.3 226.8C233.9 229.6 235.3 232.5 237 235.3C240.6 241.2 245.4 245.6 251.2 249.6C258.9 255 266.1 261.3 272.2 268.4C281.9 279.6 294.6 285.9 307.3 292.5C310.1 293.9 311.2 292.4 312.4 290.4C320 278.2 321.1 265.4 313.3 253.2C305.2 240.5 303.7 227.9 307.9 213.3C310.2 205.4 310 195.7 307.6 187.8C302.3 170.5 309.2 157 318.8 143.5C318.8 147 318.6 150.5 318.8 153.9C319.3 162.2 322.2 169.3 329 174.7C335.5 179.7 336.9 187.1 337 194.8C337 197.5 337.2 200.3 336.4 202.7C333.1 212.2 336.3 220.3 341.1 228.2C350.3 242.7 350.2 242.7 352.3 259.5ZM389 400.1C360.9 393.6 345.4 395 339.7 404.8C341.1 405 342.4 405.1 343.6 405.3C353 406.6 362.3 408.4 370.5 413.7C374.4 416.2 377.8 419.2 378.4 424.8C376 424.3 374.1 423.9 372.1 423.5C362.5 421.8 352.9 421 343.7 425.1C339.4 427 335.8 429.7 334 435C362.5 433.3 386.7 441.6 406.6 462C426.5 441.5 450.8 433.3 478.8 434.2C467.1 418 450.8 422.2 434.7 423.9C442.8 407.9 458.8 407.5 474.6 404.4C458.2 391 441.4 395.5 424.1 400.3C433.1 372.3 427 348.6 406.8 328.3C388.6 345.2 379.2 369.3 389 400.1Z"/>
      <path d="M321.6 649.8C318.2 648.7 315.1 647.7 313.1 647C313.1 647 313.1 647 313 647.1C309 652 306.4 657.4 302.1 660.2C289.7 668.4 265.8 665.9 254.6 656.1C245.7 648.3 240.6 638 236.2 627.3C235.7 626.1 236.4 624.2 237.1 622.9C239.5 618.7 242.3 614.8 244.5 610.5C250 599.6 253.5 588.1 250.2 575.8C246.3 561.4 236.7 550.5 226.5 540C220.7 534.1 211.1 530.7 212.1 519.7C207.3 526.7 208.4 532.2 213.9 537.7C221.8 545.5 229.5 553.5 236.9 561.9C241.1 566.7 243.5 572.6 243.1 579.4C242.3 592.7 238.8 605.3 232.7 617.1C231.6 619.2 230 622 228 622.7C216.7 626.6 205.2 629.5 193.4 625C174.6 617.8 160.8 593.4 165.1 573.8C167.1 564.5 170.2 555.2 174.4 546.5C179.4 536.2 186.2 526.9 191.6 516.7C194.4 511.6 195.9 505.7 197.4 500C197.8 498.6 196.4 496 195 495C187.2 489.1 179 483.7 171.3 477.6C163.4 471.4 157.5 463.8 154.6 453.9C152.1 445.5 149.4 437 146.2 428.8C144.8 425.3 142.4 421.9 139.7 419.2C129.2 408.8 118.1 399 107.7 388.5C97.1 377.9 91.1 365.2 91.6 349.6C92.1 336.1 91.5 322.7 91.2 309.2C91.1 306.6 90.8 303.9 90 301.4C79.4 265.9 85 233.9 111 206.6C139.1 177.1 170.4 151.3 201.3 125C222.5 107 243.9 89.2 261.6 67.6C267.4 60.6 272.4 53.1 277.8 45.8C277.7 46.3 277.7 47 277.6 47.6C277 50 276.3 52.4 275.6 54.8C269 75 257.2 92 243.6 107.9C220.3 135.2 196.4 162.1 173.7 189.9C156.5 211 142 233.9 132.7 259.8C127.9 273.2 125.1 287 126.7 301.4C128.8 321.1 136.6 338.7 146.9 355.1C173 396.5 205.8 431.8 246.2 459.7C256.4 466.8 256.3 471.4 245.7 478C241.6 480.6 237.5 483.1 233.9 486.3C228.6 491 228.4 495.9 233.3 501C235.8 503.6 238.8 505.8 241.8 507.9C259.5 521.1 277.3 534.2 295.1 547.3C296 547.9 297.5 548.4 298.5 548.2C298.6 548.2 298.8 548.1 298.9 548.1C300.7 547.2 302.3 546 304.3 544.5C304.9 544 305.5 543.6 306.2 543.1C284.5 525.8 263.4 509.1 242.6 492.6C250.8 487.7 258.4 483.9 265.1 478.9C270.9 474.7 271.1 468.3 266.8 462.6C265.3 460.6 263.4 458.9 261.5 457.4C249.7 448.2 237.7 439.3 226.1 429.8C198.5 407.5 173.4 383 156.2 351.3C145.7 332.1 137.7 312.2 139.3 289.7C141 266.1 148.7 244.6 160.6 224.4C174 201.6 192.4 182.6 209.3 162.5C232.3 135.3 255.9 108.6 275.9 79.1C284 67.1 290.7 54.6 291.7 39.7C292.6 25.6 289.8 12.4 281.8 -0.199997C275 11.7 266.5 21.2 256.3 29.1C247.1 36.3 237.9 43.4 228.4 50.2C217.9 57.7 207.1 64.7 196.3 72.1C195.9 63.9 195.5 56.5 195.2 50.4C190.2 54.8 185.6 60.5 179.7 63.9C167.6 70.9 158 80.4 148.6 90.2C147.6 91.3 146.3 92.2 144.5 93.8V74C138.5 75.8 134.3 79.3 131.1 84.1C126.6 90.9 122.3 97.8 117.5 104.4C114.7 108.3 112.4 107.8 111 103.3C109.7 99.2 109.1 95 108 90C97.4 112 78.2 128.4 73.5 153.4C67.2 147.5 61.7 142.4 56.1 137.3C52.4 145.7 49.4 153.6 45.5 161.1C41.6 168.6 36.8 175.7 32.4 182.9C12.1 215.9 5.09996 251.4 12.7 289.6C13.3 292.5 13.1 295.9 12.1 298.7C5.99996 315.4 1.39996 332.4 0.299964 350.1C-1.40004 379 3.59996 406.4 19.2 431.3C32.4 452.3 48.7 470.7 66.3 487.9C69.2 490.7 69.3 492.8 68 496.5C65.5 503.2 63.2 510 62.1 517C59.5 533.6 62.1 548.9 75.8 560.6C86.3 569.6 98.3 575.8 111.5 580C125.7 584.5 140.2 586.8 155.2 585.2C159 602.4 167.3 616.6 181.8 626.2C196.8 636.2 213.5 635.7 230.7 632.2C235.1 643.9 241.7 653.9 251 662.1C260.1 670.1 270.2 675.5 282.7 673.6C291.2 672.3 300 671.3 308 668.3C315.6 665.4 321.5 659.5 323.4 650.4C322.9 650.2 322.2 650 321.6 649.8ZM155.7 573.2C155.1 575.7 154.3 576.6 151.8 576.5C132.9 576.1 114.3 574 96.7 566.5C81.5 560 74.1 547.4 71.1 532C70.3 528.1 71.4 523.7 72.4 519.7C74.4 512.3 76.6 505 79.4 497.8C81.2 493 81.3 488.6 77.5 485.4C69.1 478.5 68.3 469.1 67.7 459.4C67.5 456.3 67 453.2 65.7 449.7C64.5 451.8 63.5 454.2 61.9 456.1C60.5 457.7 58.2 459.7 56.6 459.5C54.9 459.3 52.2 456.8 52 455.1C51.3 448.1 50.7 440.9 51.4 433.9C52.1 427.4 54.5 421.2 56.2 414.8C55.9 414.6 55.6 414.3 55.2 414.1C52.5 417.3 49.7 420.4 47.2 423.7C44.8 426.9 42.9 430.5 40.5 433.6C37.4 437.5 34.1 437.4 32.9 432.7C31.5 427.4 31.3 421.6 31.5 416.1C31.6 412 33.1 408 34.3 404C35.5 400.2 37.2 396.6 38.6 392.9C38.3 392.5 38 392.1 37.8 391.7C34.2 394 30.7 396.4 27 398.6C24.9 399.8 22.7 400.7 20.5 401.7C19.4 399.2 17.6 396.8 17.3 394.2C16.6 385.9 20 378.6 23.9 371.5C28.1 363.9 32.6 356.6 36.9 349.1C38.1 347 39 344.7 39.3 341.8C31.3 349.1 23.3 356.5 15.3 363.8C14.8 363.4 14.3 363 13.7 362.6C17.6 345.8 25.6 330.7 33.7 315.1C28.2 317.7 22.7 320.3 15.9 323.5C16.5 320.2 16.4 318 17.3 316.3C23.4 304.4 24.5 292.6 21.1 279.1C15.4 255.9 22.2 233.9 32.1 213C40.9 194.4 50 175.9 59.5 156.4C62.6 160 65.6 163.4 68.5 166.9C75.6 175.6 76.3 175.6 80.4 165.3C84.2 155.9 87.6 146.4 91.5 137C92.7 134.2 94.8 131.8 97.3 127.8C100.1 132.7 102.3 136.4 104.9 140.7C115.3 127.9 123.7 114 132.1 99.7C132.7 105.8 133.4 112 134 118.1C134.4 118.3 134.8 118.6 135.2 118.8C149.7 100.6 166.6 85.1 186.6 71.5C185.7 78.3 184.9 84.4 184 91.7C219.1 72.4 250.3 49.5 278.6 22C280.6 30.5 279.6 37.2 274.4 43.7C261.5 59.8 249.6 76.7 233.6 90.1C202.1 116.5 170.4 142.7 138.9 169C116.9 187.4 97.4 208 85.8 234.8C77.1 254.8 75.8 275.3 80.8 296.8C83.5 308.3 83.2 320.5 84 332.4C84.7 342 84.7 351.7 85.6 361.3C86 365.1 87.2 369.2 89.2 372.4C101.7 391.4 115.9 408.9 133.7 423.3C135 424.4 136.3 426.1 136.6 427.7C140.2 450.1 153 467 169 481.9C174.9 487.4 181.7 492 188.5 496.5C191.6 498.6 192.3 500.4 191.5 503.8C189 513.9 182.7 522 177.1 530.4C171.6 538.9 165.9 547.3 161.1 556.2C158.5 561.5 157.2 567.5 155.7 573.2Z"/>
      <path d="M170.6 750C178 736 185.3 721.9 192.9 707.5C197.2 709.2 201.1 710.7 205.6 712.5C194 734.8 182.6 756.6 171 778.7C166.9 777.1 163 776.1 159.7 774.1C158.2 773.2 157.1 770.5 156.9 768.5C155.3 752.6 153.9 736.7 152.4 719.3C149.8 724.1 147.9 727.6 146 731.1C141.3 740.1 136.5 749 132 758.1C130.4 761.4 128.8 762.3 125.5 760.6C123 759.3 120.3 758.4 117.1 757C128.6 734.9 140 713 151.6 690.8C154.8 692.1 157.6 693.5 160.6 694.3C164.3 695.3 165.3 697.7 165.6 701.2C166.7 716.5 168.1 731.7 169.4 746.9C169.5 747.8 169.6 748.7 169.7 749.6C170 749.8 170.3 749.9 170.6 750Z"/>
      <path d="M429 790.2C429 775 429 759.8 429 744.1C433.5 744.1 437.7 744.1 442.8 744.1C442.8 767.9 442.8 791.8 442.8 816.5C438.7 816.5 434.1 816.8 429.6 816.3C428.3 816.2 426.9 814.1 425.9 812.6C417.8 800.4 409.9 788.1 401.9 775.8C401 774.4 400 773.1 398.3 770.6C398.3 786.6 398.3 801.3 398.3 816.4C393.5 816.4 389.3 816.4 384.1 816.4C384.1 792.7 384.1 768.8 384.1 744C387.9 744 392.2 743.6 396.4 744.2C398.1 744.4 399.7 746.7 400.8 748.4C409 760.9 417.1 773.5 425.2 786.1C426.1 787.5 427 788.8 428 790.2C428.3 790.3 428.7 790.2 429 790.2Z"/>
      <path d="M323.1 813.6C313.1 813.1 301.6 809.4 294.4 797.4C282.1 776.9 294.7 744.4 317.5 739.3C334.6 735.5 352.6 741.2 360.2 756.9C372.5 782.3 353.7 813.8 323.1 813.6ZM348.3 771.9C347.8 762.3 344 755.8 336.8 752.8C324.9 747.8 312.7 752.9 308.5 765.1C306.9 769.6 305.9 774.4 305.6 779.2C304.9 790.1 311.4 798.8 320.9 800.7C332 802.9 341.5 797.4 345.1 786.5C346.6 781.7 347.2 776.7 348.3 771.9Z"/>
      <path d="M200.5 788.6C205.1 774.2 209.4 760.9 213.6 747.7C216.3 739.3 219.1 731 221.7 722.6C222.7 719.3 224 718.1 227.7 719.2C236.9 721.9 246.4 723.9 255.6 726.6C268.1 730.3 274.5 737.8 274.9 750.7C275.3 764.6 271 777.2 261.4 787.6C254.9 794.7 246.6 798.2 237.2 796.6C225.1 794.6 213.2 791.5 200.5 788.6ZM234.1 733.4C228.9 749.3 224 764.5 218.9 780.2C225.5 781.7 231.2 783.3 237.1 784.3C243 785.3 248.5 783.1 251 777.7C254.6 769.8 257.6 761.5 259.7 753.1C261.2 747 257.8 741.4 252.4 739.2C246.6 736.9 240.5 735.4 234.1 733.4Z"/>
      <path d="M466.7 638C475.9 635.7 484.8 634.8 492.8 631.4C510.1 624 519.8 608.4 518.9 592C518 575.4 506 560.2 488.3 554.5C471.2 549 454.7 550.5 439.8 561.2C414.1 579.7 416.5 615 444.7 629.7C449.7 632.3 451.4 635.4 450.7 641.3C448 640.3 445.6 639.6 443.3 638.6C417.2 627 405.4 598 417.4 574.1C425.8 557.3 440.1 547.8 458.3 544.6C481.6 540.5 502.2 546.2 517.6 564.8C535.6 586.5 530.3 617.2 506.9 633.4C496.9 640.3 485.8 643.8 473.8 644.7C466.3 645 466.2 644.9 466.7 638Z"/>
      <path d="M399.5 586.7C395.1 587.5 392.6 588 389.9 588.6C389.5 588 388.9 587.6 388.8 587C383.8 566.9 370.2 555.9 350.6 552.4C331.7 549 314.7 553.8 301.9 568.8C286.9 586.4 289.9 610.9 308.4 625.2C334.2 645.2 374.1 637 385.9 609C388.3 603.2 392 601.9 398.5 601.6C396.7 606.4 395.5 610.8 393.5 614.8C383.6 634.2 359.1 646.7 336.6 644.4C319.1 642.7 304 636.2 293 622.2C277 601.6 280.5 574.7 301.1 557.2C327.2 535 370.8 539.8 389.9 567.3C393.7 572.8 395.9 579.5 399.5 586.7Z"/>
      <path d="M487.1 800C497.6 798.7 507.7 797.4 517.7 796.1C518 796.1 518.4 796 518.7 795.9C529.3 794.4 529.8 794.8 530 806.7C511.7 809.2 493.4 811.7 474.3 814.2C470.1 790.2 466 766.6 461.8 742.2C480.3 739.7 498.3 737.3 516.7 734.8C517.4 739.2 518 742.9 518.6 747C505.3 748.8 492.5 750.6 479 752.4C479.8 757.2 480.4 761.8 481.5 766.2C481.7 767 484.1 767.8 485.4 767.7C494.8 766.6 504.2 765.3 513.6 764C515.2 763.8 516.8 763.7 518.7 763.5C519.5 767.6 520.2 771.3 521 775.4C508.6 777.1 496.6 778.7 483.8 780.5C484.8 787.2 485.9 793.4 487.1 800Z"/>
      <path d="M592.6 737.2C588.4 738.5 584.6 740 580.6 740.9C579.5 741.1 577.7 739.9 576.7 738.9C571 732.8 558.1 733.5 553.2 740.2C550.5 744 552.4 748.7 557.6 749.4C562.5 750.1 567.6 749.7 572.5 750.1C578.6 750.5 585 750.3 590.8 751.8C605.2 755.7 611.7 774 602.3 785C593.4 795.4 580.9 798 567.8 796.6C557.6 795.5 551.3 789 546.5 779.6C550.5 778 554.1 776.4 557.9 775.3C558.9 775 561 776 561.7 777.1C568.7 787.4 580.7 785.3 587.2 780.1C589.5 778.3 591 774.2 591 771.2C591 767 587.2 765.1 583.3 764.9C576.7 764.6 570 764.8 563.3 764.7C556.2 764.6 549.4 763.2 544 758C535.2 749.7 535.6 736.2 545.6 729.5C556.7 722.1 568.9 718.8 581.9 724.7C587.1 727.1 590.5 731.3 592.6 737.2Z"/>
      <path d="M733.8 728.4C729.7 730.7 726.1 733 722.3 734.9C721.2 735.4 719.6 735 718.3 734.8C717.5 734.7 716.8 734.1 716.2 733.5C708.3 725.1 700.3 725.7 691.8 732.6C688.2 735.5 682 736.7 680.6 740.1C679.2 743.5 682.2 748.8 683.6 753.2C684.4 755.7 684 757.2 681.5 758.4C678.2 760 675.1 761.9 671.6 763.9C671 762.7 670.4 761.8 670.1 760.8C663.8 738.4 657.7 716 651.3 693.7C650.4 690.4 651.2 689 653.9 686.9C660.6 681.8 665.8 682.6 672.6 687.4C691.2 700.5 710.4 712.7 729.3 725.3C730.7 726.1 732 727.1 733.8 728.4ZM692.7 717.4C684.1 711.4 676.3 706 668.6 700.7C668.3 701 668.1 701.2 667.8 701.5C670.4 709.9 673 718.4 675.7 727.2C681.5 723.8 686.7 720.8 692.7 717.4Z"/>
      <path d="M347.2 647.3C351.5 646.6 354.2 646.1 357.1 645.6C358.4 649.2 359.2 652.6 360.6 655.7C372.5 681.2 407.3 690.7 432.7 675.5C462.1 657.8 461.2 620.9 431 604.1C425.3 600.9 425.1 600.5 425.6 592.9C435.5 595.8 443.8 601 450.5 608.4C469 628.6 467.6 656.6 447.4 675.2C421.2 699.3 376.6 695.2 356.4 666.5C352.6 661 350.5 654.2 347.2 647.3Z"/>
      <path d="M123.5 675.4C127.9 677.8 131.7 679.9 136.3 682.4C121.6 703 107.2 723.3 92.3 744.2C88 741.9 83.9 739.6 79.4 737.2C94.2 716.5 108.7 696.1 123.5 675.4Z"/>
      <path d="M602.4 710.6C607.2 708.7 611.3 707.1 616.1 705.2C627.5 727.2 638.7 749 650.4 771.5C646.3 773.2 642.4 774.9 638.4 776.3C637.6 776.6 635.9 775.5 635.4 774.6C624.4 753.5 613.5 732.4 602.4 710.6Z"/>
      <path d="M409.2 590.5C409.3 591.7 409.4 593 409.4 594.3C409.4 595.3 409.2 596.2 409.1 596.9C402.6 597.9 396.3 598.3 390.3 600.1C375.6 604.4 364.8 613.4 359.3 628C357.4 632.9 352.9 631.5 349.3 632.8C349.3 609.5 384.9 584.5 409.2 590.5Z"/>
      <path d="M503.2 613.1C488.2 601.1 481.6 576.6 489.7 564.1C497 566.4 497.8 567.6 497.1 575C496.5 582.7 500.5 588.7 504.4 594.6C509.9 602.7 510 605 503.2 613.1Z"/>
      <path d="M307.1 612.9C305.5 609.4 303.5 606.1 302.5 602.5C302.1 601 303.2 598.9 304.1 597.3C306.8 592.3 309.8 587.6 312.3 582.6C313.3 580.6 313.8 577.8 313.2 575.8C311.1 568.7 315.6 566.4 320.6 564.1C328.9 576 321.9 602.2 307.1 612.9Z"/>
    </g>
    <path d="M724.7 278.4C722.7 296.1 717.6 313.5 719 331.7C719.5 338.6 718.5 345.7 718.5 352.6C718.6 364.7 714.8 375.3 706.4 383.9C694.6 396 682.2 407.6 670.2 419.6C667.7 422.1 665.6 425.2 664.3 428.4C661.7 434.9 659.5 441.5 657.7 448.3C654 462.8 645.5 473.6 633.6 482.1C627.8 486.3 622.1 490.7 616 494.3C612.6 496.4 612.4 498.5 612.7 502.1C613.4 509.8 617.7 515.7 621.6 521.9C631.1 536.8 640.3 551.8 644.3 569.3C646.8 580 646.4 590.2 641.4 599.9C633.1 616.2 618.8 630.4 597.5 626.6C594.6 626.1 591.7 625.2 588.7 624.9C581.9 624.2 577.9 620.1 575.7 614.1C573.1 606.9 570.8 599.6 568.6 592.3C564.3 578.3 567.6 566 577.8 555.6C583.8 549.4 590.1 543.4 596.3 537.4C601.9 532.1 602.7 525.5 597.4 519.3C599.1 528.3 592.3 531.8 587.3 536.5C584.5 539.2 581.4 541.5 579.1 544.6C573 552.9 566.2 560.9 561.9 570C554.1 586.5 559.6 602.3 569 616.2C574.3 624 573.5 629.6 569.6 637.2C559.8 656.2 545.9 667.2 523.4 664.6C511.8 663.3 501.5 660.7 499.1 646.7C499.1 646.7 499.1 646.7 499 646.7C503.7 644.8 508.2 642.4 512.5 639.4C539.7 620.9 545.8 585.5 524.9 560.5C521 555.8 516.7 551.8 512.2 548.5C512.3 548.5 512.3 548.6 512.4 548.6C523.3 540.2 533.8 532 544.5 524.2C553.8 517.4 563.6 511.4 572.8 504.6C582.6 497.4 582.3 490.8 572.5 483.7C568.5 480.8 564 478.4 560.1 475.4C554.8 471.3 554.7 467.3 559.9 463.1C564.5 459.3 569.8 456.3 574.5 452.7C600.8 432.1 624.2 408.4 644.7 382.1C657.3 365.9 668.2 348.6 676 329.5C684.8 308 686 286.3 678.6 264.2C672.4 245.4 662.9 228.3 651.9 211.9C630.2 179.6 604.1 150.9 578.2 122C564.4 106.6 550.7 91.1 541.5 72.4C537.4 64.1 534.5 55.2 531.1 46.6C538.1 54.5 543.9 62.8 550.4 70.5C573 97.2 601.1 118 627 141.2C651.4 163 675.9 184.9 699.3 207.8C719.4 226.6 727.8 251 724.7 278.4Z"/>
    <path d="M313 647.1C309 652 306.4 657.4 302.1 660.2C289.7 668.4 265.8 665.9 254.6 656.1C245.7 648.3 240.6 638 236.2 627.3C235.7 626.1 236.4 624.2 237.1 622.9C239.5 618.7 242.3 614.8 244.5 610.5C250 599.6 253.5 588.1 250.2 575.8C246.3 561.4 236.7 550.5 226.5 540C220.7 534.1 211.1 530.7 212.1 519.7C207.3 526.7 208.4 532.2 213.9 537.7C221.8 545.5 229.5 553.5 236.9 561.9C241.1 566.7 243.5 572.6 243.1 579.4C242.3 592.7 238.8 605.3 232.7 617.1C231.6 619.2 230 622 228 622.7C216.7 626.6 205.2 629.5 193.4 625C174.6 617.8 160.8 593.4 165.1 573.8C167.1 564.5 170.2 555.2 174.4 546.5C179.4 536.2 186.2 526.9 191.6 516.7C194.4 511.6 195.9 505.7 197.4 500C197.8 498.6 196.4 496 195 495C187.2 489.1 179 483.7 171.3 477.6C163.4 471.4 157.5 463.8 154.6 453.9C152.1 445.5 149.4 437 146.2 428.8C144.8 425.3 142.4 421.9 139.7 419.2C129.2 408.8 118.1 399 107.7 388.5C97.0999 377.9 91.0999 365.2 91.5999 349.6C92.0999 336.1 91.4999 322.7 91.1999 309.2C91.0999 306.6 90.7999 303.9 89.9999 301.4C79.3999 265.9 84.9999 233.9 111 206.6C139.1 177.1 170.4 151.3 201.3 125C222.5 107 243.9 89.2 261.6 67.6C267.4 60.6 272.4 53.1 277.8 45.8C277.7 46.3 277.7 47 277.6 47.6C277 50 276.3 52.4 275.6 54.8C269 75 257.2 92 243.6 107.9C220.3 135.2 196.4 162.1 173.7 189.9C156.5 211 142 233.9 132.7 259.8C127.9 273.2 125.1 287 126.7 301.4C128.8 321.1 136.6 338.7 146.9 355.1C173 396.5 205.8 431.8 246.2 459.7C256.4 466.8 256.3 471.4 245.7 478C241.6 480.6 237.5 483.1 233.9 486.3C228.6 491 228.4 495.9 233.3 501C235.8 503.6 238.8 505.8 241.8 507.9C259.5 521.1 277.3 534.2 295.1 547.3C296 547.9 297.5 548.4 298.5 548.2C297.1 549.2 295.8 550.2 294.5 551.3C270.7 571.5 266.6 602.6 285.1 626.4C293 636.4 302.4 643 313 647.1Z"/>
    <path d="M754.5 414.9C756.4 422.9 758.9 430.9 759.9 439C760.6 444.4 759.3 450.1 758.3 455.6C758 457.2 755.5 459.6 754 459.6C752.2 459.6 750 457.8 748.6 456.2C747 454.4 746.1 452 743.9 450C743.2 456.6 742.2 463.3 741.8 469.9C741.6 474.4 740.2 477.9 736.8 480.8C729.8 486.7 728.3 493.4 732.5 502C735.3 507.6 736.8 513.9 738.3 520C742.4 536.3 734 555.5 718.2 564C698.8 574.5 677.4 576 655.4 576.4C653 554.5 638.6 539.3 627.7 522.1C624.2 516.6 621.7 510.3 619 504.3C617.4 500.6 618.7 498.2 622.5 495.9C644.4 482.3 661.2 464.1 670.7 439.8C671.1 438.9 671.6 437.9 671.6 437C671.7 427.8 677.5 422.4 683.9 416.7C698.9 403.6 711 387.9 721.8 371.2C723.4 368.7 724.5 365.4 724.7 362.4C725.6 346.5 726 330.5 727 314.5C727.4 307.8 728.3 300.9 729.9 294.4C736.9 265.8 729.8 240.1 714.5 216C701.3 195.3 683.5 178.8 664.7 163.3C637.6 141 611 118.1 583.7 96C563.7 79.8 548 59.8 533.2 39.1C530.3 35.1 531 28.5 531 22.7C560 49.3 591.1 72.3 626.4 91.7C625.4 84.5 624.6 78.5 623.8 72.6C624.2 72.3 624.5 72 624.9 71.7C633.9 79 643.2 85.9 651.7 93.7C660.1 101.4 667.7 110.1 676.3 119.1C677 112.3 677.7 106.1 678.4 99.2C687.4 113.5 696 127.3 705 141.7C707.9 136.6 710.1 132.8 712.3 128.9C712.9 128.9 713.6 128.9 714.2 128.9C716.4 132.9 719.1 136.6 720.8 140.8C724.2 149.1 727.2 157.6 730.3 166C733.6 175 734.9 175.3 741 168C743.8 164.7 746.6 161.4 749.4 158.1C749.8 157.6 750.4 157.3 751.2 156.8C755.7 166 760.4 175 764.5 184.1C772.4 201.8 780.8 219.4 787.5 237.6C793.9 255.1 792.1 273.3 787.1 291.2C786.3 294 786.6 297.4 787.4 300.2C789.1 305.9 791.5 311.4 793.5 317.1C794.1 318.7 794.1 320.4 794.7 323.5C788 320.3 782.6 317.6 777.1 315C776.7 315.2 776.4 315.4 776 315.6C784.9 330.4 792.8 345.7 796.9 362.4C796.4 362.8 795.9 363.3 795.3 363.7C787.3 356.4 779.2 349 771.2 341.7C770.8 342 770.4 342.2 770.1 342.5C773.9 349.4 777.6 356.3 781.7 363.1C786.6 371.2 791.8 379.2 793.1 388.9C793.2 389.7 793.5 390.6 793.3 391.4C792.4 394.8 791.4 398.2 790.4 401.6C787.7 400.3 784.9 399.1 782.3 397.6C779.1 395.8 776 393.7 772.9 391.7C772.6 392 772.3 392.3 772 392.7C772.5 394 773.2 395.2 773.5 396.6C775.6 405.3 777.7 413.9 779.6 422.7C780 424.6 779.8 426.9 779.1 428.6C777.9 431.3 776 433.8 774.4 436.3C772.3 434.6 769.9 433.2 768.3 431.1C764 425.5 760 419.7 755.9 414C755.3 414.4 754.9 414.6 754.5 414.9Z"/>
    <path d="M389 400.1C379.3 369.4 388.7 345.3 406.8 328.2C427 348.6 433.1 372.3 424.1 400.2C441.4 395.3 458.2 390.9 474.6 404.3C458.8 407.4 442.8 407.8 434.7 423.8C450.8 422.1 467.1 417.9 478.8 434.1C450.8 433.2 426.5 441.3 406.6 461.9C386.7 441.5 362.5 433.2 334 434.9C335.8 429.6 339.4 426.9 343.7 425C353 421 362.5 421.7 372.1 423.4C374 423.7 375.9 424.2 378.4 424.7C377.8 419.1 374.4 416.1 370.5 413.6C362.3 408.3 353 406.5 343.6 405.2C342.3 405 341 404.9 339.7 404.7C345.4 395 360.9 393.5 389 400.1Z"/>
    <path d="M55.2 414.3C52.5 417.5 49.7 420.6 47.2 423.9C44.8 427.1 42.9 430.7 40.5 433.8C37.4 437.7 34.1 437.6 32.9 432.9C31.5 427.6 31.3 421.8 31.5 416.3C31.6 412.2 33.0999 408.1 34.2999 404.2C35.4999 400.4 37.0999 396.8 38.5999 393.1C38.2999 392.7 37.9999 392.3 37.7999 391.9C34.1999 394.2 30.7 396.6 27 398.8C24.9 400 22.7 400.9 20.5 401.9C19.4 399.4 17.6 397 17.3 394.4C16.6 386.1 20 378.8 23.9 371.7C28.1 364.1 32.6 356.8 36.9 349.3C38.1 347.2 38.9999 344.9 39.2999 342C31.2999 349.3 23.3 356.7 15.3 364C14.8 363.6 14.3 363.2 13.7 362.8C17.6 346 25.6 330.9 33.7 315.3C28.2 317.9 22.7 320.5 15.9 323.7C16.5 320.4 16.4 318.2 17.2 316.5C23.3 304.6 24.4 292.8 21 279.3C15.3 256.1 22.1 234.1 32 213.1C40.8 194.5 49.9 176 59.4 156.5C62.5 160.1 65.5 163.5 68.4 167C75.5 175.7 76.2 175.7 80.3 165.3C84.1 155.9 87.5 146.4 91.4 137C92.6 134.2 94.7 131.8 97.2 127.8C100.1 132.7 102.2 136.4 104.8 140.8C115.2 128 123.6 114.1 132 99.8C132.6 105.9 133.3 112.1 133.9 118.2C134.3 118.4 134.7 118.7 135.1 118.9C149.6 100.7 166.5 85.2 186.5 71.6C185.6 78.4 184.8 84.5 183.9 91.8C219.1 72.5 250.2 49.6 278.5 22.1C280.5 30.6 279.5 37.2 274.3 43.8C261.4 59.9 249.5 76.8 233.5 90.2C202 116.6 170.3 142.8 138.8 169.1C116.8 187.5 97.3 208.1 85.7 234.9C77 254.9 75.6 275.4 80.7 296.9C83.4 308.4 83.1 320.6 83.9 332.5C84.6 342.1 84.6 351.8 85.5 361.4C85.9 365.2 87.1 369.4 89.1 372.5C101.6 391.5 115.8 409 133.6 423.4C134.9 424.5 136.2 426.2 136.5 427.8C140.1 450.2 152.9 467.1 168.9 482C174.8 487.5 181.6 492.1 188.4 496.6C191.5 498.7 192.2 500.5 191.4 503.9C188.9 514 182.6 522.1 177 530.5C171.5 539 165.8 547.4 161 556.3C158.2 561.5 156.9 567.5 155.4 573.2C154.8 575.7 154 576.6 151.5 576.5C132.6 576.1 114 574 96.4 566.5C81.5 560 74.0999 547.5 71.0999 532C70.3999 528.1 71.4 523.7 72.5 519.8C74.5 512.4 76.7 505.1 79.5 497.9C81.3 493.1 81.3999 488.7 77.5999 485.5C69.1999 478.6 68.4 469.2 67.8 459.5C67.6 456.4 67.1 453.3 65.8 449.8C64.6 451.9 63.6 454.4 62 456.2C60.6 457.8 58.3 459.8 56.7 459.6C55 459.4 52.2999 456.9 52.0999 455.2C51.3999 448.2 50.8 441 51.5 434C52.2 427.5 54.5999 421.3 56.2999 414.9C55.8999 414.8 55.6 414.6 55.2 414.3Z"/>
  </g>
</svg>